solid OpenSCAD_Model
  facet normal 1 -0 0
    outer loop
      vertex 55 0 17
      vertex 55 75 0
      vertex 55 75 17
    endloop
  endfacet
  facet normal 1 0 0
    outer loop
      vertex 55 75 0
      vertex 55 0 17
      vertex 55 0 0
    endloop
  endfacet
  facet normal 0 0 1
    outer loop
      vertex 55 75 17
      vertex 53.5 73.5 17
      vertex 55 0 17
    endloop
  endfacet
  facet normal 0 0 1
    outer loop
      vertex 55 75 17
      vertex 1.5 73.5 17
      vertex 53.5 73.5 17
    endloop
  endfacet
  facet normal 0 0 1
    outer loop
      vertex 1.5 73.5 17
      vertex 0 75 17
      vertex 1.5 1.5 17
    endloop
  endfacet
  facet normal -0 0 1
    outer loop
      vertex 0 75 17
      vertex 1.5 73.5 17
      vertex 55 75 17
    endloop
  endfacet
  facet normal -0 0 1
    outer loop
      vertex 53.5 1.5 17
      vertex 55 0 17
      vertex 53.5 73.5 17
    endloop
  endfacet
  facet normal -0 0 1
    outer loop
      vertex 1.5 1.5 17
      vertex 55 0 17
      vertex 53.5 1.5 17
    endloop
  endfacet
  facet normal 0 0 1
    outer loop
      vertex 1.5 1.5 17
      vertex 0 0 17
      vertex 55 0 17
    endloop
  endfacet
  facet normal 0 0 1
    outer loop
      vertex 0 0 17
      vertex 1.5 1.5 17
      vertex 0 75 17
    endloop
  endfacet
  facet normal 0 0 -1
    outer loop
      vertex 55 0 0
      vertex 53.5 1.5 0
      vertex 55 75 0
    endloop
  endfacet
  facet normal 0 0 -1
    outer loop
      vertex 55 0 0
      vertex 1.5 1.5 0
      vertex 53.5 1.5 0
    endloop
  endfacet
  facet normal -0 0 -1
    outer loop
      vertex 1.5 1.5 0
      vertex 0 0 0
      vertex 1.5 73.5 0
    endloop
  endfacet
  facet normal 0 0 -1
    outer loop
      vertex 0 0 0
      vertex 1.5 1.5 0
      vertex 55 0 0
    endloop
  endfacet
  facet normal 0 0 -1
    outer loop
      vertex 53.5 73.5 0
      vertex 55 75 0
      vertex 53.5 1.5 0
    endloop
  endfacet
  facet normal 0 0 -1
    outer loop
      vertex 1.5 73.5 0
      vertex 55 75 0
      vertex 53.5 73.5 0
    endloop
  endfacet
  facet normal 0 0 -1
    outer loop
      vertex 1.5 73.5 0
      vertex 0 75 0
      vertex 55 75 0
    endloop
  endfacet
  facet normal 0 0 -1
    outer loop
      vertex 0 75 0
      vertex 1.5 73.5 0
      vertex 0 0 0
    endloop
  endfacet
  facet normal -1 0 0
    outer loop
      vertex 0 0 0
      vertex 0 75 17
      vertex 0 75 0
    endloop
  endfacet
  facet normal -1 -0 0
    outer loop
      vertex 0 75 17
      vertex 0 0 0
      vertex 0 0 17
    endloop
  endfacet
  facet normal 0 1 -0
    outer loop
      vertex 55 75 0
      vertex 0 75 17
      vertex 55 75 17
    endloop
  endfacet
  facet normal 0 1 0
    outer loop
      vertex 0 75 17
      vertex 55 75 0
      vertex 0 75 0
    endloop
  endfacet
  facet normal 0 -1 0
    outer loop
      vertex 0 0 0
      vertex 55 0 17
      vertex 0 0 17
    endloop
  endfacet
  facet normal 0 -1 -0
    outer loop
      vertex 55 0 17
      vertex 0 0 0
      vertex 55 0 0
    endloop
  endfacet
  facet normal -1 0 0
    outer loop
      vertex 53.5 1.5 0
      vertex 53.5 73.5 17
      vertex 53.5 73.5 0
    endloop
  endfacet
  facet normal -1 -0 0
    outer loop
      vertex 53.5 73.5 17
      vertex 53.5 1.5 0
      vertex 53.5 1.5 17
    endloop
  endfacet
  facet normal 1 -0 0
    outer loop
      vertex 1.5 1.5 17
      vertex 1.5 73.5 0
      vertex 1.5 73.5 17
    endloop
  endfacet
  facet normal 1 0 0
    outer loop
      vertex 1.5 73.5 0
      vertex 1.5 1.5 17
      vertex 1.5 1.5 0
    endloop
  endfacet
  facet normal 0 -1 0
    outer loop
      vertex 1.5 73.5 0
      vertex 53.5 73.5 17
      vertex 1.5 73.5 17
    endloop
  endfacet
  facet normal 0 -1 -0
    outer loop
      vertex 53.5 73.5 17
      vertex 1.5 73.5 0
      vertex 53.5 73.5 0
    endloop
  endfacet
  facet normal 0 1 -0
    outer loop
      vertex 53.5 1.5 0
      vertex 1.5 1.5 17
      vertex 53.5 1.5 17
    endloop
  endfacet
  facet normal 0 1 0
    outer loop
      vertex 1.5 1.5 17
      vertex 53.5 1.5 0
      vertex 1.5 1.5 0
    endloop
  endfacet
endsolid OpenSCAD_Model
