solid OpenSCAD_Model
  facet normal 1 -0 0
    outer loop
      vertex 27 0 19.5
      vertex 27 104 0
      vertex 27 104 19.5
    endloop
  endfacet
  facet normal 1 0 0
    outer loop
      vertex 27 104 0
      vertex 27 0 19.5
      vertex 27 0 0
    endloop
  endfacet
  facet normal 0 0 1
    outer loop
      vertex 27 104 19.5
      vertex 25.5 102.5 19.5
      vertex 27 0 19.5
    endloop
  endfacet
  facet normal 0 0 1
    outer loop
      vertex 27 104 19.5
      vertex 1.5 102.5 19.5
      vertex 25.5 102.5 19.5
    endloop
  endfacet
  facet normal 0 0 1
    outer loop
      vertex 1.5 102.5 19.5
      vertex 0 104 19.5
      vertex 1.5 1.5 19.5
    endloop
  endfacet
  facet normal -0 0 1
    outer loop
      vertex 0 104 19.5
      vertex 1.5 102.5 19.5
      vertex 27 104 19.5
    endloop
  endfacet
  facet normal -0 0 1
    outer loop
      vertex 25.5 1.5 19.5
      vertex 27 0 19.5
      vertex 25.5 102.5 19.5
    endloop
  endfacet
  facet normal -0 0 1
    outer loop
      vertex 1.5 1.5 19.5
      vertex 27 0 19.5
      vertex 25.5 1.5 19.5
    endloop
  endfacet
  facet normal 0 0 1
    outer loop
      vertex 1.5 1.5 19.5
      vertex 0 0 19.5
      vertex 27 0 19.5
    endloop
  endfacet
  facet normal 0 0 1
    outer loop
      vertex 0 0 19.5
      vertex 1.5 1.5 19.5
      vertex 0 104 19.5
    endloop
  endfacet
  facet normal 0 0 -1
    outer loop
      vertex 27 0 0
      vertex 25.5 1.5 0
      vertex 27 104 0
    endloop
  endfacet
  facet normal 0 0 -1
    outer loop
      vertex 27 0 0
      vertex 1.5 1.5 0
      vertex 25.5 1.5 0
    endloop
  endfacet
  facet normal -0 0 -1
    outer loop
      vertex 1.5 1.5 0
      vertex 0 0 0
      vertex 1.5 102.5 0
    endloop
  endfacet
  facet normal 0 0 -1
    outer loop
      vertex 0 0 0
      vertex 1.5 1.5 0
      vertex 27 0 0
    endloop
  endfacet
  facet normal 0 0 -1
    outer loop
      vertex 25.5 102.5 0
      vertex 27 104 0
      vertex 25.5 1.5 0
    endloop
  endfacet
  facet normal 0 0 -1
    outer loop
      vertex 1.5 102.5 0
      vertex 27 104 0
      vertex 25.5 102.5 0
    endloop
  endfacet
  facet normal 0 0 -1
    outer loop
      vertex 1.5 102.5 0
      vertex 0 104 0
      vertex 27 104 0
    endloop
  endfacet
  facet normal 0 0 -1
    outer loop
      vertex 0 104 0
      vertex 1.5 102.5 0
      vertex 0 0 0
    endloop
  endfacet
  facet normal -1 0 0
    outer loop
      vertex 0 0 0
      vertex 0 104 19.5
      vertex 0 104 0
    endloop
  endfacet
  facet normal -1 -0 0
    outer loop
      vertex 0 104 19.5
      vertex 0 0 0
      vertex 0 0 19.5
    endloop
  endfacet
  facet normal 0 1 -0
    outer loop
      vertex 27 104 0
      vertex 0 104 19.5
      vertex 27 104 19.5
    endloop
  endfacet
  facet normal 0 1 0
    outer loop
      vertex 0 104 19.5
      vertex 27 104 0
      vertex 0 104 0
    endloop
  endfacet
  facet normal 0 -1 0
    outer loop
      vertex 0 0 0
      vertex 27 0 19.5
      vertex 0 0 19.5
    endloop
  endfacet
  facet normal 0 -1 -0
    outer loop
      vertex 27 0 19.5
      vertex 0 0 0
      vertex 27 0 0
    endloop
  endfacet
  facet normal -1 0 0
    outer loop
      vertex 25.5 1.5 0
      vertex 25.5 102.5 19.5
      vertex 25.5 102.5 0
    endloop
  endfacet
  facet normal -1 -0 0
    outer loop
      vertex 25.5 102.5 19.5
      vertex 25.5 1.5 0
      vertex 25.5 1.5 19.5
    endloop
  endfacet
  facet normal 1 -0 0
    outer loop
      vertex 1.5 1.5 19.5
      vertex 1.5 102.5 0
      vertex 1.5 102.5 19.5
    endloop
  endfacet
  facet normal 1 0 0
    outer loop
      vertex 1.5 102.5 0
      vertex 1.5 1.5 19.5
      vertex 1.5 1.5 0
    endloop
  endfacet
  facet normal 0 -1 0
    outer loop
      vertex 1.5 102.5 0
      vertex 25.5 102.5 19.5
      vertex 1.5 102.5 19.5
    endloop
  endfacet
  facet normal 0 -1 -0
    outer loop
      vertex 25.5 102.5 19.5
      vertex 1.5 102.5 0
      vertex 25.5 102.5 0
    endloop
  endfacet
  facet normal 0 1 -0
    outer loop
      vertex 25.5 1.5 0
      vertex 1.5 1.5 19.5
      vertex 25.5 1.5 19.5
    endloop
  endfacet
  facet normal 0 1 0
    outer loop
      vertex 1.5 1.5 19.5
      vertex 25.5 1.5 0
      vertex 1.5 1.5 0
    endloop
  endfacet
endsolid OpenSCAD_Model
