solid OpenSCAD_Model
  facet normal 1 -0 0
    outer loop
      vertex 12 0 25
      vertex 12 213 0
      vertex 12 213 25
    endloop
  endfacet
  facet normal 1 0 0
    outer loop
      vertex 12 213 0
      vertex 12 0 25
      vertex 12 0 0
    endloop
  endfacet
  facet normal 0 0 1
    outer loop
      vertex 12 213 25
      vertex 10.5 211.5 25
      vertex 12 0 25
    endloop
  endfacet
  facet normal 0 0 1
    outer loop
      vertex 12 213 25
      vertex 1.5 211.5 25
      vertex 10.5 211.5 25
    endloop
  endfacet
  facet normal 0 0 1
    outer loop
      vertex 1.5 211.5 25
      vertex 0 213 25
      vertex 1.5 1.5 25
    endloop
  endfacet
  facet normal -0 0 1
    outer loop
      vertex 0 213 25
      vertex 1.5 211.5 25
      vertex 12 213 25
    endloop
  endfacet
  facet normal -0 0 1
    outer loop
      vertex 10.5 1.5 25
      vertex 12 0 25
      vertex 10.5 211.5 25
    endloop
  endfacet
  facet normal -0 0 1
    outer loop
      vertex 1.5 1.5 25
      vertex 12 0 25
      vertex 10.5 1.5 25
    endloop
  endfacet
  facet normal 0 0 1
    outer loop
      vertex 1.5 1.5 25
      vertex 0 0 25
      vertex 12 0 25
    endloop
  endfacet
  facet normal 0 0 1
    outer loop
      vertex 0 0 25
      vertex 1.5 1.5 25
      vertex 0 213 25
    endloop
  endfacet
  facet normal 0 0 -1
    outer loop
      vertex 12 0 0
      vertex 10.5 1.5 0
      vertex 12 213 0
    endloop
  endfacet
  facet normal 0 0 -1
    outer loop
      vertex 12 0 0
      vertex 1.5 1.5 0
      vertex 10.5 1.5 0
    endloop
  endfacet
  facet normal -0 0 -1
    outer loop
      vertex 1.5 1.5 0
      vertex 0 0 0
      vertex 1.5 211.5 0
    endloop
  endfacet
  facet normal 0 0 -1
    outer loop
      vertex 0 0 0
      vertex 1.5 1.5 0
      vertex 12 0 0
    endloop
  endfacet
  facet normal 0 0 -1
    outer loop
      vertex 10.5 211.5 0
      vertex 12 213 0
      vertex 10.5 1.5 0
    endloop
  endfacet
  facet normal 0 0 -1
    outer loop
      vertex 1.5 211.5 0
      vertex 12 213 0
      vertex 10.5 211.5 0
    endloop
  endfacet
  facet normal 0 0 -1
    outer loop
      vertex 1.5 211.5 0
      vertex 0 213 0
      vertex 12 213 0
    endloop
  endfacet
  facet normal 0 0 -1
    outer loop
      vertex 0 213 0
      vertex 1.5 211.5 0
      vertex 0 0 0
    endloop
  endfacet
  facet normal -1 0 0
    outer loop
      vertex 0 0 0
      vertex 0 213 25
      vertex 0 213 0
    endloop
  endfacet
  facet normal -1 -0 0
    outer loop
      vertex 0 213 25
      vertex 0 0 0
      vertex 0 0 25
    endloop
  endfacet
  facet normal 0 1 -0
    outer loop
      vertex 12 213 0
      vertex 0 213 25
      vertex 12 213 25
    endloop
  endfacet
  facet normal 0 1 0
    outer loop
      vertex 0 213 25
      vertex 12 213 0
      vertex 0 213 0
    endloop
  endfacet
  facet normal 0 -1 0
    outer loop
      vertex 0 0 0
      vertex 12 0 25
      vertex 0 0 25
    endloop
  endfacet
  facet normal 0 -1 -0
    outer loop
      vertex 12 0 25
      vertex 0 0 0
      vertex 12 0 0
    endloop
  endfacet
  facet normal -1 0 0
    outer loop
      vertex 10.5 1.5 0
      vertex 10.5 211.5 25
      vertex 10.5 211.5 0
    endloop
  endfacet
  facet normal -1 -0 0
    outer loop
      vertex 10.5 211.5 25
      vertex 10.5 1.5 0
      vertex 10.5 1.5 25
    endloop
  endfacet
  facet normal 1 -0 0
    outer loop
      vertex 1.5 1.5 25
      vertex 1.5 211.5 0
      vertex 1.5 211.5 25
    endloop
  endfacet
  facet normal 1 0 0
    outer loop
      vertex 1.5 211.5 0
      vertex 1.5 1.5 25
      vertex 1.5 1.5 0
    endloop
  endfacet
  facet normal 0 -1 0
    outer loop
      vertex 1.5 211.5 0
      vertex 10.5 211.5 25
      vertex 1.5 211.5 25
    endloop
  endfacet
  facet normal 0 -1 -0
    outer loop
      vertex 10.5 211.5 25
      vertex 1.5 211.5 0
      vertex 10.5 211.5 0
    endloop
  endfacet
  facet normal 0 1 -0
    outer loop
      vertex 10.5 1.5 0
      vertex 1.5 1.5 25
      vertex 10.5 1.5 25
    endloop
  endfacet
  facet normal 0 1 0
    outer loop
      vertex 1.5 1.5 25
      vertex 10.5 1.5 0
      vertex 1.5 1.5 0
    endloop
  endfacet
endsolid OpenSCAD_Model
