solid OpenSCAD_Model
  facet normal 1 -0 0
    outer loop
      vertex 71 0 24.5
      vertex 71 121 0
      vertex 71 121 24.5
    endloop
  endfacet
  facet normal 1 0 0
    outer loop
      vertex 71 121 0
      vertex 71 0 24.5
      vertex 71 0 0
    endloop
  endfacet
  facet normal 0 0 1
    outer loop
      vertex 71 121 24.5
      vertex 69.5 119.5 24.5
      vertex 71 0 24.5
    endloop
  endfacet
  facet normal 0 0 1
    outer loop
      vertex 71 121 24.5
      vertex 1.5 119.5 24.5
      vertex 69.5 119.5 24.5
    endloop
  endfacet
  facet normal 0 0 1
    outer loop
      vertex 1.5 119.5 24.5
      vertex 0 121 24.5
      vertex 1.5 1.5 24.5
    endloop
  endfacet
  facet normal -0 0 1
    outer loop
      vertex 0 121 24.5
      vertex 1.5 119.5 24.5
      vertex 71 121 24.5
    endloop
  endfacet
  facet normal -0 0 1
    outer loop
      vertex 69.5 1.5 24.5
      vertex 71 0 24.5
      vertex 69.5 119.5 24.5
    endloop
  endfacet
  facet normal -0 0 1
    outer loop
      vertex 1.5 1.5 24.5
      vertex 71 0 24.5
      vertex 69.5 1.5 24.5
    endloop
  endfacet
  facet normal 0 0 1
    outer loop
      vertex 1.5 1.5 24.5
      vertex 0 0 24.5
      vertex 71 0 24.5
    endloop
  endfacet
  facet normal 0 0 1
    outer loop
      vertex 0 0 24.5
      vertex 1.5 1.5 24.5
      vertex 0 121 24.5
    endloop
  endfacet
  facet normal 0 0 -1
    outer loop
      vertex 71 0 0
      vertex 69.5 1.5 0
      vertex 71 121 0
    endloop
  endfacet
  facet normal 0 0 -1
    outer loop
      vertex 71 0 0
      vertex 1.5 1.5 0
      vertex 69.5 1.5 0
    endloop
  endfacet
  facet normal -0 0 -1
    outer loop
      vertex 1.5 1.5 0
      vertex 0 0 0
      vertex 1.5 119.5 0
    endloop
  endfacet
  facet normal 0 0 -1
    outer loop
      vertex 0 0 0
      vertex 1.5 1.5 0
      vertex 71 0 0
    endloop
  endfacet
  facet normal 0 0 -1
    outer loop
      vertex 69.5 119.5 0
      vertex 71 121 0
      vertex 69.5 1.5 0
    endloop
  endfacet
  facet normal 0 0 -1
    outer loop
      vertex 1.5 119.5 0
      vertex 71 121 0
      vertex 69.5 119.5 0
    endloop
  endfacet
  facet normal 0 0 -1
    outer loop
      vertex 1.5 119.5 0
      vertex 0 121 0
      vertex 71 121 0
    endloop
  endfacet
  facet normal 0 0 -1
    outer loop
      vertex 0 121 0
      vertex 1.5 119.5 0
      vertex 0 0 0
    endloop
  endfacet
  facet normal -1 0 0
    outer loop
      vertex 0 0 0
      vertex 0 121 24.5
      vertex 0 121 0
    endloop
  endfacet
  facet normal -1 -0 0
    outer loop
      vertex 0 121 24.5
      vertex 0 0 0
      vertex 0 0 24.5
    endloop
  endfacet
  facet normal 0 1 -0
    outer loop
      vertex 71 121 0
      vertex 0 121 24.5
      vertex 71 121 24.5
    endloop
  endfacet
  facet normal 0 1 0
    outer loop
      vertex 0 121 24.5
      vertex 71 121 0
      vertex 0 121 0
    endloop
  endfacet
  facet normal 0 -1 0
    outer loop
      vertex 0 0 0
      vertex 71 0 24.5
      vertex 0 0 24.5
    endloop
  endfacet
  facet normal 0 -1 -0
    outer loop
      vertex 71 0 24.5
      vertex 0 0 0
      vertex 71 0 0
    endloop
  endfacet
  facet normal -1 0 0
    outer loop
      vertex 69.5 1.5 0
      vertex 69.5 119.5 24.5
      vertex 69.5 119.5 0
    endloop
  endfacet
  facet normal -1 -0 0
    outer loop
      vertex 69.5 119.5 24.5
      vertex 69.5 1.5 0
      vertex 69.5 1.5 24.5
    endloop
  endfacet
  facet normal 1 -0 0
    outer loop
      vertex 1.5 1.5 24.5
      vertex 1.5 119.5 0
      vertex 1.5 119.5 24.5
    endloop
  endfacet
  facet normal 1 0 0
    outer loop
      vertex 1.5 119.5 0
      vertex 1.5 1.5 24.5
      vertex 1.5 1.5 0
    endloop
  endfacet
  facet normal 0 -1 0
    outer loop
      vertex 1.5 119.5 0
      vertex 69.5 119.5 24.5
      vertex 1.5 119.5 24.5
    endloop
  endfacet
  facet normal 0 -1 -0
    outer loop
      vertex 69.5 119.5 24.5
      vertex 1.5 119.5 0
      vertex 69.5 119.5 0
    endloop
  endfacet
  facet normal 0 1 -0
    outer loop
      vertex 69.5 1.5 0
      vertex 1.5 1.5 24.5
      vertex 69.5 1.5 24.5
    endloop
  endfacet
  facet normal 0 1 0
    outer loop
      vertex 1.5 1.5 24.5
      vertex 69.5 1.5 0
      vertex 1.5 1.5 0
    endloop
  endfacet
endsolid OpenSCAD_Model
