solid OpenSCAD_Model
  facet normal 1 -0 0
    outer loop
      vertex 180 0 25
      vertex 180 20 0
      vertex 180 20 25
    endloop
  endfacet
  facet normal 1 0 0
    outer loop
      vertex 180 20 0
      vertex 180 0 25
      vertex 180 0 0
    endloop
  endfacet
  facet normal 0 0 1
    outer loop
      vertex 180 20 25
      vertex 178.5 18.5 25
      vertex 180 0 25
    endloop
  endfacet
  facet normal 0 0 1
    outer loop
      vertex 180 20 25
      vertex 1.5 18.5 25
      vertex 178.5 18.5 25
    endloop
  endfacet
  facet normal 0 0 1
    outer loop
      vertex 1.5 18.5 25
      vertex 0 20 25
      vertex 1.5 1.5 25
    endloop
  endfacet
  facet normal -0 0 1
    outer loop
      vertex 0 20 25
      vertex 1.5 18.5 25
      vertex 180 20 25
    endloop
  endfacet
  facet normal -0 0 1
    outer loop
      vertex 178.5 1.5 25
      vertex 180 0 25
      vertex 178.5 18.5 25
    endloop
  endfacet
  facet normal -0 0 1
    outer loop
      vertex 1.5 1.5 25
      vertex 180 0 25
      vertex 178.5 1.5 25
    endloop
  endfacet
  facet normal 0 0 1
    outer loop
      vertex 1.5 1.5 25
      vertex 0 0 25
      vertex 180 0 25
    endloop
  endfacet
  facet normal 0 0 1
    outer loop
      vertex 0 0 25
      vertex 1.5 1.5 25
      vertex 0 20 25
    endloop
  endfacet
  facet normal 0 0 -1
    outer loop
      vertex 180 0 0
      vertex 178.5 1.5 0
      vertex 180 20 0
    endloop
  endfacet
  facet normal 0 0 -1
    outer loop
      vertex 180 0 0
      vertex 1.5 1.5 0
      vertex 178.5 1.5 0
    endloop
  endfacet
  facet normal -0 0 -1
    outer loop
      vertex 1.5 1.5 0
      vertex 0 0 0
      vertex 1.5 18.5 0
    endloop
  endfacet
  facet normal 0 0 -1
    outer loop
      vertex 0 0 0
      vertex 1.5 1.5 0
      vertex 180 0 0
    endloop
  endfacet
  facet normal 0 0 -1
    outer loop
      vertex 178.5 18.5 0
      vertex 180 20 0
      vertex 178.5 1.5 0
    endloop
  endfacet
  facet normal 0 0 -1
    outer loop
      vertex 1.5 18.5 0
      vertex 180 20 0
      vertex 178.5 18.5 0
    endloop
  endfacet
  facet normal 0 0 -1
    outer loop
      vertex 1.5 18.5 0
      vertex 0 20 0
      vertex 180 20 0
    endloop
  endfacet
  facet normal 0 0 -1
    outer loop
      vertex 0 20 0
      vertex 1.5 18.5 0
      vertex 0 0 0
    endloop
  endfacet
  facet normal -1 0 0
    outer loop
      vertex 0 0 0
      vertex 0 20 25
      vertex 0 20 0
    endloop
  endfacet
  facet normal -1 -0 0
    outer loop
      vertex 0 20 25
      vertex 0 0 0
      vertex 0 0 25
    endloop
  endfacet
  facet normal 0 1 -0
    outer loop
      vertex 180 20 0
      vertex 0 20 25
      vertex 180 20 25
    endloop
  endfacet
  facet normal 0 1 0
    outer loop
      vertex 0 20 25
      vertex 180 20 0
      vertex 0 20 0
    endloop
  endfacet
  facet normal 0 -1 0
    outer loop
      vertex 0 0 0
      vertex 180 0 25
      vertex 0 0 25
    endloop
  endfacet
  facet normal 0 -1 -0
    outer loop
      vertex 180 0 25
      vertex 0 0 0
      vertex 180 0 0
    endloop
  endfacet
  facet normal -1 0 0
    outer loop
      vertex 178.5 1.5 0
      vertex 178.5 18.5 25
      vertex 178.5 18.5 0
    endloop
  endfacet
  facet normal -1 -0 0
    outer loop
      vertex 178.5 18.5 25
      vertex 178.5 1.5 0
      vertex 178.5 1.5 25
    endloop
  endfacet
  facet normal 1 -0 0
    outer loop
      vertex 1.5 1.5 25
      vertex 1.5 18.5 0
      vertex 1.5 18.5 25
    endloop
  endfacet
  facet normal 1 0 0
    outer loop
      vertex 1.5 18.5 0
      vertex 1.5 1.5 25
      vertex 1.5 1.5 0
    endloop
  endfacet
  facet normal 0 -1 0
    outer loop
      vertex 1.5 18.5 0
      vertex 178.5 18.5 25
      vertex 1.5 18.5 25
    endloop
  endfacet
  facet normal 0 -1 -0
    outer loop
      vertex 178.5 18.5 25
      vertex 1.5 18.5 0
      vertex 178.5 18.5 0
    endloop
  endfacet
  facet normal 0 1 -0
    outer loop
      vertex 178.5 1.5 0
      vertex 1.5 1.5 25
      vertex 178.5 1.5 25
    endloop
  endfacet
  facet normal 0 1 0
    outer loop
      vertex 1.5 1.5 25
      vertex 178.5 1.5 0
      vertex 1.5 1.5 0
    endloop
  endfacet
endsolid OpenSCAD_Model
